<?xml version="1.0" encoding="iso-8859-1"?>
<!-- Generator: Adobe Illustrator 26.0.0, SVG Export Plug-In . SVG Version: 6.00 Build 0)  -->
<svg version="1.1" id="Layer_1" xmlns="http://www.w3.org/2000/svg" xmlns:xlink="http://www.w3.org/1999/xlink" x="0px" y="0px"
	 width="605.42px" height="1000px" viewBox="0 0 605.42 1000" enable-background="new 0 0 605.42 1000" xml:space="preserve">
<g>
	<path fill="#FFFFFF" d="M605.42,141.937V0C505.607,0,411.768,38.869,341.19,109.448
		c-66.631,66.631-104.981,153.994-109.066,247.541h-0.382c0,127.782-103.959,231.741-231.742,231.741l0,141.937
		c84.603,0,164.906-27.935,230.398-79.425C217.925,767.349,119.362,858.063,0,858.063L0,1000
		c99.813,0,193.652-38.869,264.231-109.448c66.631-66.631,104.981-153.994,109.066-247.541h0.382
		c0-127.784,103.959-231.743,231.741-231.743l0-141.937c-84.603,0-164.906,27.935-230.398,79.426
		C387.495,232.651,486.058,141.937,605.42,141.937z"/>
</g>
<g>
</g>
<g>
</g>
<g>
</g>
<g>
</g>
<g>
</g>
<g>
</g>
<g>
</g>
<g>
</g>
<g>
</g>
<g>
</g>
<g>
</g>
<g>
</g>
<g>
</g>
<g>
</g>
<g>
</g>
</svg>
